<svg width="31" height="25" viewBox="0 0 31 25" fill="none" xmlns="http://www.w3.org/2000/svg">
<path fill-rule="evenodd" clip-rule="evenodd" d="M1.19231 0.695801C0.876088 0.695801 0.57282 0.835629 0.349219 1.08453C0.125618 1.33342 0 1.671 0 2.02299C0 2.37498 0.125618 2.71256 0.349219 2.96145C0.57282 3.21035 0.876088 3.35018 1.19231 3.35018H29.8077C30.1239 3.35018 30.4272 3.21035 30.6508 2.96145C30.8744 2.71256 31 2.37498 31 2.02299C31 1.671 30.8744 1.33342 30.6508 1.08453C30.4272 0.835629 30.1239 0.695801 29.8077 0.695801H1.19231ZM0 12.6405C0 12.2885 0.125618 11.9509 0.349219 11.702C0.57282 11.4531 0.876088 11.3133 1.19231 11.3133H29.8077C30.1239 11.3133 30.4272 11.4531 30.6508 11.702C30.8744 11.9509 31 12.2885 31 12.6405C31 12.9925 30.8744 13.3301 30.6508 13.579C30.4272 13.8279 30.1239 13.9677 29.8077 13.9677H1.19231C0.876088 13.9677 0.57282 13.8279 0.349219 13.579C0.125618 13.3301 0 12.9925 0 12.6405ZM0 23.258C0 22.906 0.125618 22.5684 0.349219 22.3195C0.57282 22.0707 0.876088 21.9308 1.19231 21.9308H29.8077C30.1239 21.9308 30.4272 22.0707 30.6508 22.3195C30.8744 22.5684 31 22.906 31 23.258C31 23.61 30.8744 23.9476 30.6508 24.1965C30.4272 24.4454 30.1239 24.5852 29.8077 24.5852H1.19231C0.876088 24.5852 0.57282 24.4454 0.349219 24.1965C0.125618 23.9476 0 23.61 0 23.258Z" fill="currentColor"/>
</svg>
