<svg width="250" height="60" viewBox="0 0 250 60" fill="none" xmlns="http://www.w3.org/2000/svg">
<path d="M60.7 45.2682H62.1L68 58.905H66.2L64.4 54.8239H58.2L56.5 58.905H54.8L60.7 45.2682ZM58.9 53.2313H63.8L61.3 47.458L58.9 53.2313Z" fill="currentColor"/>
<path d="M77.8 58.905V45.3677C78.6 45.3677 80.5 45.3677 81.4 45.3677C85.3 45.3677 86.4 47.458 86.4 49.5484C86.4 51.7382 84.8 53.8285 81.5 53.8285C81 53.8285 80.1 53.8285 79.5 53.729V58.905H77.8ZM79.5 46.8608V52.1364C80.2 52.2359 80.8 52.2359 81.5 52.2359C83.5 52.2359 84.7 51.2405 84.7 49.5484C84.7 47.9557 83.7 46.9603 81.6 46.9603C81 46.8608 80.1 46.8608 79.5 46.8608Z" fill="currentColor"/>
<path d="M99.9 45.2682H101.3L107.2 58.905H105.4L103.6 54.8239H97.4L95.7 58.905H94L99.9 45.2682ZM98.1 53.2313H103L100.5 47.458L98.1 53.2313Z" fill="currentColor"/>
<path d="M117 45.3677C117.8 45.3677 120.3 45.3677 120.7 45.3677C124.4 45.3677 125.5 47.259 125.5 49.4488C125.5 51.5391 124 52.9327 122.5 53.3309L127 59.1041H125L120.8 53.6295H118.6V59.1041H117V45.3677ZM118.7 46.8608V51.9373H120.7C122.3 51.9373 123.8 50.9419 123.8 49.3493C123.8 47.9557 123 46.8608 120.6 46.8608C120.2 46.8608 119.3 46.8608 118.7 46.8608Z" fill="currentColor"/>
<path d="M135 45.3677H146.2V46.8608H141.4V58.905H139.8V46.8608H135V45.3677Z" fill="currentColor"/>
<path d="M156 45.3677H157.7L162.8 52.3355L167.7 45.3677H169.3V58.905H167.6V47.9557L162.8 54.7244H162.6L157.7 48.0553V58.905H156V45.3677Z" fill="currentColor"/>
<path d="M180.8 45.3677H188.5V46.8608H182.4V51.2405H187.9V52.8332H182.4V57.412H188.7V58.905H180.8V45.3677Z" fill="currentColor"/>
<path d="M209.2 58.905L200.7 48.2544V58.905H199.1V45.3677H200.5L209 56.0184V45.3677H210.5V58.905H209.2Z" fill="currentColor"/>
<path d="M220.3 45.3677H231.5V46.8608H226.7V58.905H225.1V46.8608H220.3V45.3677Z" fill="currentColor"/>
<path d="M240.8 48.752C240.8 46.7613 242.3 45.1686 244.9 45.1686C246.5 45.1686 247.9 45.7659 248.7 46.5622L247.8 47.7567C247.1 47.0599 246.2 46.6617 245 46.6617C243.5 46.6617 242.5 47.458 242.5 48.6525C242.5 52.0368 249.2 50.7428 249.2 55.4212C249.2 57.611 247.2 59.1041 244.8 59.1041C243.1 59.1041 241.2 58.3078 240.5 57.1133L241.5 56.0184C242.3 57.1133 243.7 57.611 244.9 57.611C246.3 57.611 247.6 56.9143 247.6 55.5207C247.4 52.1364 240.8 53.2313 240.8 48.752Z" fill="currentColor"/>
<path d="M82.1 1.47094H83.4V34.3189L59.4 4.95481V33.8212H58.1V0.973248L82.1 30.2378V1.47094Z" fill="currentColor"/>
<path d="M89.9 1.47094H101.6V2.66541H91.3V20.2838H99.9V21.5779H91.3V32.6267H101.6V33.8212H89.9V1.47094Z" fill="currentColor"/>
<path d="M117.8 34.4184L103.5 1.47094H105.1L118 31.1336L124.1 17.0986L117.3 1.47094H118.9L124.9 15.705L131.1 1.47094H132.4L125.6 16.9991L131.8 31.2332L144.9 1.47094H146.1L131.6 34.4184L124.7 18.5917L117.8 34.4184Z" fill="currentColor"/>
<path d="M164.3 1.47094V2.66541H156.9V33.8212H155.5V2.66541H148V1.47094H164.3Z" fill="currentColor"/>
<path d="M168.6 29.3419C165.3 25.9576 163.7 22.0756 163.7 17.4968C163.7 13.0175 165.4 9.03592 168.7 5.75113C172 2.46634 176 0.77417 180.7 0.77417C185.4 0.77417 189.3 2.46634 192.6 5.75113C195.9 9.03592 197.6 12.9179 197.6 17.4968C197.6 22.0756 196 25.9576 192.7 29.3419C189.4 32.7262 185.5 34.4184 181 34.4184H180.3C175.8 34.4184 171.9 32.7262 168.6 29.3419ZM196.1 17.5963C196.1 13.3161 194.6 9.7327 191.6 6.64698C188.6 3.56127 184.9 2.06818 180.7 2.06818C176.4 2.06818 172.8 3.56127 169.7 6.64698C166.6 9.7327 165.1 13.3161 165.1 17.5963C165.1 21.8765 166.6 25.4599 169.7 28.5456C172.7 31.6313 176.4 33.1244 180.6 33.1244C184.9 33.1244 188.5 31.6313 191.5 28.5456C194.6 25.5594 196.1 21.8765 196.1 17.5963Z" fill="currentColor"/>
<path d="M226.8 1.47094H228V34.3189L204 4.95481V33.8212H202.8V0.973248L226.8 30.2378V1.47094Z" fill="currentColor"/>
<path d="M0.7 58.905L0.3 30.2378L0 1.57048H1.3L0.7 58.905Z" fill="currentColor"/>
<path d="M4.8 58.905L4.2 1.57048H5.5L5.2 30.2378L4.8 58.905Z" fill="currentColor"/>
<path d="M9 58.905L8.4 1.57048H9.7L9.3 30.2378L9 58.905Z" fill="currentColor"/>
<path d="M13.2 58.905L12.9 30.2378L12.5 1.57048H13.8L13.2 58.905Z" fill="currentColor"/>
<path d="M17.4 58.905L17 30.2378L16.7 1.57048H18L17.4 58.905Z" fill="currentColor"/>
<path d="M21.5 58.905L20.9 1.57048H22.2L21.9 30.2378L21.5 58.905Z" fill="currentColor"/>
<path d="M25.7 58.905L25.1 1.57048H26.4L26 30.2378L25.7 58.905Z" fill="currentColor"/>
<path d="M42.5 1.57048L42.9 30.2378L43.2 58.905H41.9L42.5 1.57048Z" fill="currentColor"/>
<path d="M38.4 1.57048L39 58.905H37.7L38 30.2378L38.4 1.57048Z" fill="currentColor"/>
<path d="M34.2 1.57048L34.8 58.905H33.5L33.9 30.2378L34.2 1.57048Z" fill="currentColor"/>
<path d="M30 1.57048L30.3 30.2378L30.7 58.905H29.4L30 1.57048Z" fill="currentColor"/>
<path d="M25.8 1.57048L26.2 30.2378L26.5 58.905H25.2L25.8 1.57048Z" fill="currentColor"/>
<path d="M21.6 1.57048L22 30.2378L22.3 58.905H21L21.6 1.57048Z" fill="currentColor"/>
<path d="M17.5 1.57048L18.1 58.905H16.8L17.1 30.2378L17.5 1.57048Z" fill="currentColor"/>
</svg>
