<svg xmlns="http://www.w3.org/2000/svg" width="29" height="29" viewBox="0 0 29 29" fill="none">
<path d="M19.34 16.2633C18.52 16.2633 17.7267 16.1299 16.9867 15.8899C16.7533 15.8098 16.4933 15.8699 16.3133 16.0499L15.2667 17.3637C13.38 16.4634 11.6133 14.7628 10.6733 12.8088L11.9733 11.7017C12.1533 11.515 12.2067 11.2549 12.1333 11.0215C11.8867 10.2812 11.76 9.4876 11.76 8.66731C11.76 8.30719 11.46 8.00708 11.1 8.00708H8.79333C8.43333 8.00708 8 8.16714 8 8.66731C8 14.8628 13.1533 20.0113 19.34 20.0113C19.8133 20.0113 20 19.5912 20 19.2244V16.9236C20 16.5634 19.7 16.2633 19.34 16.2633Z" fill="currentColor"/>
<circle cx="14.5" cy="14.5" r="14" stroke="currentColor"/>
</svg>