<svg width="283" height="80" viewBox="0 0 283 80" fill="none" xmlns="http://www.w3.org/2000/svg">
<path d="M78.5041 0V42.929H71.4948V25.0055L72.1957 9.79235L50.6422 42.929H42.4062V0H49.4155V18.0109L48.8022 33.1366L70.2682 0H78.5041Z" fill="#010103"/>
<path d="M111.974 15.738H100.934V42.9293H94.0123V15.738H82.9727V9.18066H100.934H111.974V15.738Z" fill="#010103"/>
<path d="M148.685 26.0548C148.685 36.1094 141.325 43.716 131.249 43.716C123.276 43.716 115.916 39.0821 114.427 30.6012H121.611C122.838 34.9728 126.868 37.4209 131.249 37.4209C136.594 37.4209 140.536 33.9236 141.5 28.6777H129.059V23.1695H141.5C140.712 18.1859 136.331 14.6012 131.337 14.6886C126.781 14.6886 122.926 17.1367 121.699 21.4209H114.514C116.004 13.2897 123.188 8.39355 131.337 8.39355C141.325 8.48099 148.685 16.0001 148.685 26.0548Z" fill="#010103"/>
<path d="M185.658 9.18066V42.9293H178.737V15.738H167.522L165.331 29.8145C163.667 39.8692 159.987 43.7162 154.204 43.7162C153.065 43.7162 151.926 43.5413 150.787 43.3665V37.1588C151.488 37.2462 152.189 37.3337 152.802 37.3337C156.044 37.3337 157.446 35.585 158.497 29.29L161.652 9.2681L185.658 9.18066Z" fill="#010103"/>
<path d="M229.379 9.18066V42.9293H222.457V28.8528L222.983 17.1369L211.33 33.6615H211.155L199.502 17.1369L200.028 28.8528V42.9293H193.106V9.18066H201.254L211.243 23.0823L221.231 9.18066H229.379Z" fill="#010103"/>
<path d="M262.848 26.0545C262.848 19.5846 258.38 15.0382 252.422 15.0382C246.464 15.0382 242.346 19.5846 242.346 26.0545C242.346 32.5245 246.552 37.0709 252.422 37.0709C258.292 37.0709 262.848 32.6119 262.848 26.0545ZM269.77 9.18023V42.9289H262.848V37.2458C260.307 41.2677 255.839 43.7158 251.02 43.6283C241.996 43.6283 235.424 36.2841 235.424 26.0545C235.424 15.825 242.083 8.48078 251.02 8.48078C255.839 8.39335 260.395 10.8414 262.848 14.9507V9.18023H269.77Z" fill="#010103"/>
<path d="M278.794 12.2404H279.583C280.021 12.2404 280.196 12.0656 280.196 11.7158C280.196 11.3661 280.021 11.1913 279.583 11.1913H278.794V12.2404ZM280.021 12.765L280.985 14.0765H280.109L279.145 12.765H278.794V14.0765H278.006V10.4918H279.758C280.371 10.4918 280.897 10.929 280.897 11.6284C280.985 12.2404 280.634 12.6776 280.021 12.765ZM282.387 12.3279C282.387 10.6667 281.072 9.35519 279.408 9.35519C277.743 9.35519 276.429 10.6667 276.429 12.3279C276.429 13.9891 277.743 15.3005 279.408 15.3005C280.985 15.3005 282.387 13.9891 282.387 12.3279ZM283 12.3279C283 14.3388 281.423 15.9126 279.408 15.9126C277.393 15.9126 275.815 14.3388 275.815 12.3279C275.815 10.3169 277.393 8.74316 279.408 8.74316C281.335 8.74316 283 10.3169 283 12.3279Z" fill="#010103"/>
<path d="M44.4215 73.4427H52.7451V60.6777H46.6996L45.1225 70.6449C45.1225 71.6067 44.8596 72.5684 44.4215 73.4427ZM58.4401 73.4427V80.0001H55.4612V76.2405H41.5302V80.0001H38.5513V73.4427H41.1798C41.7054 73.0056 42.0559 72.1313 42.3188 70.3826L44.3339 57.8799H55.724V73.4427H58.4401Z" fill="#010103"/>
<path d="M63.4342 67.4102H71.8453C71.4949 65.3993 69.7425 64.0004 67.7274 64.0878C65.6246 64.0004 63.8723 65.3993 63.4342 67.4102ZM74.9995 69.8583H63.2589C63.3466 72.2189 65.3617 74.055 67.7274 73.9676H67.815C69.3921 74.055 70.8815 73.2681 71.6701 71.7818H74.7367C73.7729 74.7545 70.8815 76.678 67.7274 76.5031C63.5218 76.5031 60.1924 73.1807 60.1924 68.984C60.1924 64.7872 63.5218 61.4648 67.7274 61.4648C72.2834 61.4648 75.2624 65.137 74.9995 69.8583Z" fill="#010103"/>
<path d="M87.7035 71.8691C87.7035 70.7325 87.0902 69.9456 85.3378 69.9456H81.1323V73.9675H85.3378C87.1778 73.88 87.7035 73.0057 87.7035 71.8691ZM84.6369 64.1751H81.1323V67.7598H84.6369C86.3892 67.7598 87.0025 67.0604 87.0025 66.0112C87.0025 64.962 86.4768 64.1751 84.6369 64.1751ZM90.6824 72.1314C90.6824 74.8418 88.6672 76.2407 85.5131 76.2407H78.1533V61.8145H84.8998C88.0539 61.8145 89.9815 62.7762 89.9815 65.4866C89.9815 66.7981 89.1929 68.0221 87.9663 68.5467C89.631 68.8964 90.77 70.3828 90.6824 72.1314Z" fill="#010103"/>
<path d="M96.2899 67.4102H104.701C104.351 65.3993 102.598 64.0004 100.583 64.0878C98.5679 64.0004 96.728 65.3993 96.2899 67.4102ZM107.855 69.8583H96.1147C96.2023 72.2189 98.2175 74.055 100.583 73.9676H100.671C102.248 74.055 103.825 73.2681 104.526 71.7818H107.592C106.629 74.7545 103.737 76.678 100.671 76.5031C96.4652 76.5031 93.1357 73.1807 93.1357 68.984C93.1357 64.7872 96.4652 61.4648 100.671 61.4648C105.227 61.4648 108.206 65.137 107.855 69.8583Z" fill="#010103"/>
<path d="M124.59 61.8145V76.2407H121.611V64.6123H116.792L115.828 70.6451C115.127 74.9292 113.55 76.5904 111.009 76.5904C110.484 76.5904 110.046 76.503 109.52 76.4155V73.7052C109.783 73.7052 110.133 73.7926 110.396 73.7926C111.798 73.7926 112.411 73.0057 112.849 70.3828L114.251 61.8145H124.59Z" fill="#010103"/>
<path d="M130.811 69.0707C130.898 71.5188 133.001 73.4423 135.542 73.3548C137.995 73.2674 139.923 71.169 139.835 68.6335C139.748 66.2728 137.732 64.3493 135.367 64.3493C132.913 64.3493 130.898 66.2728 130.898 68.8084C130.811 68.8958 130.811 68.9832 130.811 69.0707ZM142.726 69.0707C142.726 73.18 139.309 76.5024 135.192 76.5024C131.074 76.5024 127.744 73.0925 127.744 68.9832C127.744 64.8739 131.161 61.5515 135.192 61.5515C139.222 61.4641 142.639 64.6991 142.726 68.8084C142.726 68.8084 142.726 68.8958 142.726 69.0707Z" fill="#010103"/>
<path d="M159.374 76.2407H156.395V64.6123H148.947V76.2407H145.968V61.8145H148.947H159.374V76.2407Z" fill="#010103"/>
<path d="M178.824 61.8145V76.2407H175.845V70.2079L176.021 65.2243L171.114 72.3063H171.027L166.033 65.2243L166.208 70.2079V76.2407H163.316V61.8145H166.733L171.027 67.7598L175.32 61.8145H178.824Z" fill="#010103"/>
<path d="M185.22 67.4102H193.632C193.281 65.3993 191.529 64.0004 189.514 64.0878C187.498 64.0004 185.658 65.3993 185.22 67.4102ZM196.873 69.8583H185.133C185.22 72.2189 187.236 74.055 189.601 73.9676H189.689C191.266 74.055 192.843 73.2681 193.544 71.7818H196.61C195.647 74.7545 192.755 76.678 189.689 76.5031C185.483 76.5031 182.154 73.1807 182.154 68.984C182.154 64.7872 185.483 61.4648 189.689 61.4648C194.157 61.4648 197.136 65.137 196.873 69.8583Z" fill="#010103"/>
<path d="M213.608 61.8145V76.2407H210.629V70.2953H203.006V76.2407H200.027V61.8145H203.006V67.4975H210.629V61.8145H213.608Z" fill="#010103"/>
<path d="M228.59 64.6123H223.859V76.2407H220.88V64.6123H216.149V61.8145H223.859H228.59V64.6123Z" fill="#010103"/>
<path d="M2.27802 18.3609C1.05139 18.3609 0 17.3117 0 16.0877C0 14.8636 1.05139 13.8145 2.27802 13.8145C3.50464 13.8145 4.55604 14.8636 4.55604 16.0877C4.55604 17.3991 3.59226 18.3609 2.27802 18.3609Z" fill="#010103"/>
<path d="M19.8015 18.3609C18.5748 18.3609 17.5234 17.3117 17.5234 16.0877C17.5234 14.8636 18.5748 13.8145 19.8015 13.8145C21.0281 13.8145 22.0795 14.8636 22.0795 16.0877C22.0795 17.3991 21.1157 18.3609 19.8015 18.3609Z" fill="#010103"/>
<path d="M19.8015 35.8472C18.5748 35.8472 17.5234 34.7981 17.5234 33.574C17.5234 32.35 18.5748 31.3008 19.8015 31.3008C21.0281 31.3008 22.0795 32.35 22.0795 33.574C22.0795 34.8855 21.1157 35.8472 19.8015 35.8472Z" fill="#010103"/>
</svg>
