<svg width="250" height="59" viewBox="0 0 250 59" fill="none" xmlns="http://www.w3.org/2000/svg">
<path d="M60.7 44.494H62.1L68 58.1309H66.2L64.4 54.0498H58.2L56.5 58.1309H54.8L60.7 44.494ZM58.9 52.4571H63.8L61.3 46.6839L58.9 52.4571Z" fill="black"/>
<path d="M77.8 58.1309V44.5935C78.6 44.5935 80.5 44.5935 81.4 44.5935C85.3 44.5935 86.4 46.6839 86.4 48.7742C86.4 50.9641 84.8 53.0544 81.5 53.0544C81 53.0544 80.1 53.0544 79.5 52.9548V58.1309H77.8ZM79.5 46.0866V51.3622C80.2 51.4618 80.8 51.4618 81.5 51.4618C83.5 51.4618 84.7 50.4664 84.7 48.7742C84.7 47.1816 83.7 46.1862 81.6 46.1862C81 46.0866 80.1 46.0866 79.5 46.0866Z" fill="black"/>
<path d="M99.9 44.494H101.3L107.2 58.1309H105.4L103.6 54.0498H97.4L95.7 58.1309H94L99.9 44.494ZM98.1 52.4571H103L100.5 46.6839L98.1 52.4571Z" fill="black"/>
<path d="M117 44.5935C117.8 44.5935 120.3 44.5935 120.7 44.5935C124.4 44.5935 125.5 46.4848 125.5 48.6747C125.5 50.765 124 52.1585 122.5 52.5567L127 58.33H125L120.8 52.8553H118.6V58.33H117V44.5935ZM118.7 46.0866V51.1631H120.7C122.3 51.1631 123.8 50.1677 123.8 48.5751C123.8 47.1816 123 46.0866 120.6 46.0866C120.2 46.0866 119.3 46.0866 118.7 46.0866Z" fill="black"/>
<path d="M135 44.5935H146.2V46.0866H141.4V58.1309H139.8V46.0866H135V44.5935Z" fill="black"/>
<path d="M156 44.5935H157.7L162.8 51.5613L167.7 44.5935H169.3V58.1309H167.6V47.1816L162.8 53.9502H162.6L157.7 47.2811V58.1309H156V44.5935Z" fill="black"/>
<path d="M180.8 44.5935H188.5V46.0866H182.4V50.4664H187.9V52.059H182.4V56.6378H188.7V58.1309H180.8V44.5935Z" fill="black"/>
<path d="M209.2 58.1309L200.7 47.4802V58.1309H199.1V44.5935H200.5L209 55.2442V44.5935H210.5V58.1309H209.2Z" fill="black"/>
<path d="M220.3 44.5935H231.5V46.0866H226.7V58.1309H225.1V46.0866H220.3V44.5935Z" fill="black"/>
<path d="M240.8 47.9779C240.8 45.9871 242.3 44.3945 244.9 44.3945C246.5 44.3945 247.9 44.9917 248.7 45.788L247.8 46.9825C247.1 46.2857 246.2 45.8876 245 45.8876C243.5 45.8876 242.5 46.6839 242.5 47.8783C242.5 51.2627 249.2 49.9687 249.2 54.647C249.2 56.8369 247.2 58.33 244.8 58.33C243.1 58.33 241.2 57.5336 240.5 56.3392L241.5 55.2442C242.3 56.3392 243.7 56.8369 244.9 56.8369C246.3 56.8369 247.6 56.1401 247.6 54.7465C247.4 51.3622 240.8 52.4571 240.8 47.9779Z" fill="black"/>
<path d="M82.1 0.696774H83.4V33.5447L59.4 4.18064V33.047H58.1V0.199078L82.1 29.4636V0.696774Z" fill="black"/>
<path d="M89.9 0.696774H101.6V1.89124H91.3V19.5097H99.9V20.8037H91.3V31.8525H101.6V33.047H89.9V0.696774Z" fill="black"/>
<path d="M117.8 33.6442L103.5 0.696774H105.1L118 30.3594L124.1 16.3244L117.3 0.696774H118.9L124.9 14.9309L131.1 0.696774H132.4L125.6 16.2249L131.8 30.459L144.9 0.696774H146.1L131.6 33.6442L124.7 17.8175L117.8 33.6442Z" fill="black"/>
<path d="M164.3 0.696774V1.89124H156.9V33.047H155.5V1.89124H148V0.696774H164.3Z" fill="black"/>
<path d="M168.6 28.5677C165.3 25.1834 163.7 21.3014 163.7 16.7226C163.7 12.2433 165.4 8.26175 168.7 4.97696C172 1.69217 176 0 180.7 0C185.4 0 189.3 1.69217 192.6 4.97696C195.9 8.26175 197.6 12.1438 197.6 16.7226C197.6 21.3014 196 25.1834 192.7 28.5677C189.4 31.9521 185.5 33.6442 181 33.6442H180.3C175.8 33.6442 171.9 31.9521 168.6 28.5677ZM196.1 16.8221C196.1 12.5419 194.6 8.95853 191.6 5.87281C188.6 2.7871 184.9 1.29401 180.7 1.29401C176.4 1.29401 172.8 2.7871 169.7 5.87281C166.6 8.95853 165.1 12.5419 165.1 16.8221C165.1 21.1023 166.6 24.6857 169.7 27.7714C172.7 30.8571 176.4 32.3502 180.6 32.3502C184.9 32.3502 188.5 30.8571 191.5 27.7714C194.6 24.7853 196.1 21.1023 196.1 16.8221Z" fill="black"/>
<path d="M226.8 0.696774H228V33.5447L204 4.18064V33.047H202.8V0.199078L226.8 29.4636V0.696774Z" fill="black"/>
<path d="M0.7 58.1309L0.3 29.4636L0 0.796313H1.3L0.7 58.1309Z" fill="black"/>
<path d="M4.8 58.1309L4.2 0.796313H5.5L5.2 29.4636L4.8 58.1309Z" fill="black"/>
<path d="M9 58.1309L8.4 0.796313H9.7L9.3 29.4636L9 58.1309Z" fill="black"/>
<path d="M13.2 58.1309L12.9 29.4636L12.5 0.796313H13.8L13.2 58.1309Z" fill="black"/>
<path d="M17.4 58.1309L17 29.4636L16.7 0.796313H18L17.4 58.1309Z" fill="black"/>
<path d="M21.5 58.1309L20.9 0.796313H22.2L21.9 29.4636L21.5 58.1309Z" fill="black"/>
<path d="M25.7 58.1309L25.1 0.796313H26.4L26 29.4636L25.7 58.1309Z" fill="black"/>
<path d="M42.5 0.796313L42.9 29.4636L43.2 58.1309H41.9L42.5 0.796313Z" fill="black"/>
<path d="M38.4 0.796313L39 58.1309H37.7L38 29.4636L38.4 0.796313Z" fill="black"/>
<path d="M34.2 0.796313L34.8 58.1309H33.5L33.9 29.4636L34.2 0.796313Z" fill="black"/>
<path d="M30 0.796313L30.3 29.4636L30.7 58.1309H29.4L30 0.796313Z" fill="black"/>
<path d="M25.8 0.796313L26.2 29.4636L26.5 58.1309H25.2L25.8 0.796313Z" fill="black"/>
<path d="M21.6 0.796313L22 29.4636L22.3 58.1309H21L21.6 0.796313Z" fill="black"/>
<path d="M17.5 0.796313L18.1 58.1309H16.8L17.1 29.4636L17.5 0.796313Z" fill="black"/>
</svg>
