<?xml version="1.0" encoding="utf-8"?><svg viewBox="0 0 576 512" xmlns="http://www.w3.org/2000/svg" xmlns:xlink="http://www.w3.org/1999/xlink"><style>:root>svg{display:none}:root>svg:target{display:block}</style><svg fill="none" viewBox="0 0 31 25" id="burger" xmlns="http://www.w3.org/2000/svg"><path fill-rule="evenodd" clip-rule="evenodd" d="M1.192.696c-.316 0-.62.14-.843.389C.126 1.333 0 1.67 0 2.023s.126.69.35.938c.223.25.526.39.842.39h28.616c.316 0 .62-.14.843-.39.223-.248.349-.586.349-.938s-.126-.69-.35-.938a1.134 1.134 0 00-.842-.39H1.192zM0 12.64c0-.351.126-.69.35-.938.223-.249.526-.389.842-.389h28.616c.316 0 .62.14.843.389.223.249.349.587.349.938 0 .352-.126.69-.35.939a1.134 1.134 0 01-.842.389H1.192c-.316 0-.62-.14-.843-.389A1.407 1.407 0 010 12.64zm0 10.618c0-.352.126-.69.35-.938.223-.25.526-.39.842-.39h28.616c.316 0 .62.14.843.39.223.248.349.586.349.938s-.126.69-.35.939a1.134 1.134 0 01-.842.388H1.192c-.316 0-.62-.14-.843-.389A1.407 1.407 0 010 23.259z" fill="currentColor"/></svg><svg fill="none" viewBox="0 0 31 25" id="burger-black" xmlns="http://www.w3.org/2000/svg"><path fill-rule="evenodd" clip-rule="evenodd" d="M1.192.696c-.316 0-.62.14-.843.389C.126 1.333 0 1.67 0 2.023s.126.69.35.938c.223.25.526.39.842.39h28.616c.316 0 .62-.14.843-.39.223-.248.349-.586.349-.938s-.126-.69-.35-.938a1.134 1.134 0 00-.842-.39H1.192zM0 12.64c0-.351.126-.69.35-.938.223-.249.526-.389.842-.389h28.616c.316 0 .62.14.843.389.223.249.349.587.349.938 0 .352-.126.69-.35.939a1.134 1.134 0 01-.842.389H1.192c-.316 0-.62-.14-.843-.389A1.407 1.407 0 010 12.64zm0 10.618c0-.352.126-.69.35-.938.223-.25.526-.39.842-.39h28.616c.316 0 .62.14.843.39.223.248.349.586.349.938s-.126.69-.35.939a1.134 1.134 0 01-.842.388H1.192c-.316 0-.62-.14-.843-.389A1.407 1.407 0 010 23.259z" fill="#000"/></svg><svg fill="none" viewBox="0 0 19 20" id="close" xmlns="http://www.w3.org/2000/svg"><path stroke="currentColor" d="M1.364.657l17.165 18.175M17.636.657L.471 18.832"/></svg><svg fill="none" viewBox="0 0 19 20" id="close-black" xmlns="http://www.w3.org/2000/svg"><path stroke="#000" d="M1.364.657l17.165 18.175M17.636.657L.471 18.832"/></svg><svg aria-hidden="true" data-prefix="fab" data-icon="facebook-f" class="esvg-inline--fa efa-facebook-f efa-w-10" viewBox="0 0 320 512" id="facebook" xmlns="http://www.w3.org/2000/svg"><path fill="currentColor" d="M279.14 288l14.22-92.66h-88.91v-60.13c0-25.35 12.42-50.06 52.24-50.06h40.42V6.26S260.43 0 225.36 0c-73.22 0-121.08 44.38-121.08 124.72v70.62H22.89V288h81.39v224h100.17V288z"/></svg><svg viewBox="0 0 502.664 502.664" id="icon" xmlns="http://www.w3.org/2000/svg"><g fill="#010002"><path d="M153.821 358.226L0 274.337v-46.463l153.821-83.414v54.574L46.636 250.523l107.185 53.431v54.272zM180.094 387.584L282.103 115.08h32.227L212.084 387.584h-31.99zM348.843 358.226v-54.272l107.164-52.999-107.164-52.59v-53.927l153.821 83.522v46.183l-153.821 84.083z"/></g></svg><svg aria-hidden="true" data-prefix="fab" data-icon="instagram" class="gsvg-inline--fa gfa-instagram gfa-w-14" viewBox="0 0 448 512" id="instagram" xmlns="http://www.w3.org/2000/svg"><path fill="currentColor" d="M224.1 141c-63.6 0-114.9 51.3-114.9 114.9s51.3 114.9 114.9 114.9S339 319.5 339 255.9 287.7 141 224.1 141zm0 189.6c-41.1 0-74.7-33.5-74.7-74.7s33.5-74.7 74.7-74.7 74.7 33.5 74.7 74.7-33.6 74.7-74.7 74.7zm146.4-194.3c0 14.9-12 26.8-26.8 26.8-14.9 0-26.8-12-26.8-26.8s12-26.8 26.8-26.8 26.8 12 26.8 26.8zm76.1 27.2c-1.7-35.9-9.9-67.7-36.2-93.9-26.2-26.2-58-34.4-93.9-36.2-37-2.1-147.9-2.1-184.9 0-35.8 1.7-67.6 9.9-93.9 36.1s-34.4 58-36.2 93.9c-2.1 37-2.1 147.9 0 184.9 1.7 35.9 9.9 67.7 36.2 93.9s58 34.4 93.9 36.2c37 2.1 147.9 2.1 184.9 0 35.9-1.7 67.7-9.9 93.9-36.2 26.2-26.2 34.4-58 36.2-93.9 2.1-37 2.1-147.8 0-184.8zM398.8 388c-7.8 19.6-22.9 34.7-42.6 42.6-29.5 11.7-99.5 9-132.1 9s-102.7 2.6-132.1-9c-19.6-7.8-34.7-22.9-42.6-42.6-11.7-29.5-9-99.5-9-132.1s-2.6-102.7 9-132.1c7.8-19.6 22.9-34.7 42.6-42.6 29.5-11.7 99.5-9 132.1-9s102.7-2.6 132.1 9c19.6 7.8 34.7 22.9 42.6 42.6 11.7 29.5 9 99.5 9 132.1s2.7 102.7-9 132.1z"/></svg><svg fill="none" viewBox="0 0 250 60" id="logo" xmlns="http://www.w3.org/2000/svg"><path d="M60.7 45.268h1.4L68 58.905h-1.8l-1.8-4.081h-6.2l-1.7 4.081h-1.7l5.9-13.637zm-1.8 7.963h4.9l-2.5-5.773-2.4 5.773zM77.8 58.905V45.368h3.6c3.9 0 5 2.09 5 4.18 0 2.19-1.6 4.28-4.9 4.28-.5 0-1.4 0-2-.099v5.176h-1.7zm1.7-12.044v5.275c.7.1 1.3.1 2 .1 2 0 3.2-.995 3.2-2.688 0-1.592-1-2.588-3.1-2.588-.6-.1-1.5-.1-2.1-.1zM99.9 45.268h1.4l5.9 13.637h-1.8l-1.8-4.081h-6.2l-1.7 4.081H94l5.9-13.637zm-1.8 7.963h4.9l-2.5-5.773-2.4 5.773zM117 45.368h3.7c3.7 0 4.8 1.891 4.8 4.08 0 2.091-1.5 3.485-3 3.883l4.5 5.773h-2l-4.2-5.474h-2.2v5.474H117V45.368zm1.7 1.493v5.076h2c1.6 0 3.1-.995 3.1-2.588 0-1.393-.8-2.488-3.2-2.488h-1.9zM135 45.368h11.2v1.493h-4.8v12.044h-1.6V46.861H135v-1.493zM156 45.368h1.7l5.1 6.968 4.9-6.968h1.6v13.537h-1.7v-10.95l-4.8 6.77h-.2l-4.9-6.67v10.85H156V45.368zM180.8 45.368h7.7v1.493h-6.1v4.38h5.5v1.592h-5.5v4.579h6.3v1.493h-7.9V45.368zM209.2 58.905l-8.5-10.65v10.65h-1.6V45.368h1.4l8.5 10.65v-10.65h1.5v13.537h-1.3zM220.3 45.368h11.2v1.493h-4.8v12.044h-1.6V46.861h-4.8v-1.493zM240.8 48.752c0-1.99 1.5-3.583 4.1-3.583 1.6 0 3 .597 3.8 1.393l-.9 1.195c-.7-.697-1.6-1.095-2.8-1.095-1.5 0-2.5.796-2.5 1.99 0 3.385 6.7 2.09 6.7 6.77 0 2.189-2 3.682-4.4 3.682-1.7 0-3.6-.796-4.3-1.99l1-1.096c.8 1.095 2.2 1.593 3.4 1.593 1.4 0 2.7-.697 2.7-2.09-.2-3.385-6.8-2.29-6.8-6.769zM82.1 1.47h1.3V34.32l-24-29.364V33.82h-1.3V.973l24 29.265V1.47zM89.9 1.47h11.7v1.195H91.3v17.619h8.6v1.294h-8.6v11.049h10.3v1.194H89.9V1.471zM117.8 34.418L103.5 1.471h1.6L118 31.134l6.1-14.035-6.8-15.628h1.6l6 14.234 6.2-14.234h1.3l-6.8 15.528 6.2 14.234 13.1-29.762h1.2l-14.5 32.947-6.9-15.826-6.9 15.826zM164.3 1.47v1.195h-7.4v31.156h-1.4V2.665H148V1.471h16.3zM168.6 29.342c-3.3-3.384-4.9-7.266-4.9-11.845 0-4.48 1.7-8.461 5-11.746s7.3-4.977 12-4.977 8.6 1.692 11.9 4.977c3.3 3.285 5 7.167 5 11.746 0 4.579-1.6 8.46-4.9 11.845-3.3 3.384-7.2 5.076-11.7 5.076h-.7c-4.5 0-8.4-1.692-11.7-5.076zm27.5-11.746c0-4.28-1.5-7.863-4.5-10.949-3-3.086-6.7-4.579-10.9-4.579-4.3 0-7.9 1.493-11 4.579-3.1 3.086-4.6 6.67-4.6 10.95 0 4.28 1.5 7.863 4.6 10.949 3 3.085 6.7 4.578 10.9 4.578 4.3 0 7.9-1.493 10.9-4.578 3.1-2.987 4.6-6.67 4.6-10.95zM226.8 1.47h1.2V34.32L204 4.955V33.82h-1.2V.973l24 29.265V1.47zM.7 58.905L.3 30.238 0 1.57h1.3L.7 58.905zM4.8 58.905L4.2 1.57h1.3l-.3 28.668-.4 28.667zM9 58.905L8.4 1.57h1.3l-.4 28.668L9 58.905zM13.2 58.905l-.3-28.667-.4-28.668h1.3l-.6 57.335zM17.4 58.905L17 30.238 16.7 1.57H18l-.6 57.335zM21.5 58.905L20.9 1.57h1.3l-.3 28.668-.4 28.667zM25.7 58.905L25.1 1.57h1.3L26 30.238l-.3 28.667zM42.5 1.57l.4 28.668.3 28.667h-1.3l.6-57.335zM38.4 1.57l.6 57.335h-1.3l.3-28.667.4-28.668zM34.2 1.57l.6 57.335h-1.3l.4-28.667.3-28.668zM30 1.57l.3 28.668.4 28.667h-1.3L30 1.57z" fill="currentColor"/><path d="M25.8 1.57l.4 28.668.3 28.667h-1.3l.6-57.335zM21.6 1.57l.4 28.668.3 28.667H21l.6-57.335zM17.5 1.57l.6 57.335h-1.3l.3-28.667.4-28.668z" fill="currentColor"/></svg><svg fill="none" viewBox="0 0 32 32" id="metro" xmlns="http://www.w3.org/2000/svg"><circle cx="15.75" cy="15.75" r="15.75" fill="#fff"/><path d="M12.585 12.89V20h-1.872v-9.414h3.006l2.358 5.868 2.376-5.868h2.826V20h-2.142v-7.11L16.167 20h-.72l-2.862-7.11z" fill="#568F27"/></svg><svg fill="none" viewBox="0 0 29 29" id="phone" xmlns="http://www.w3.org/2000/svg"><path d="M19.34 16.263c-.82 0-1.613-.133-2.353-.373a.651.651 0 00-.674.16l-1.046 1.314c-1.887-.9-3.654-2.601-4.594-4.555l1.3-1.107a.68.68 0 00.16-.68 7.442 7.442 0 01-.373-2.355c0-.36-.3-.66-.66-.66H8.793c-.36 0-.793.16-.793.66 0 6.196 5.153 11.344 11.34 11.344.473 0 .66-.42.66-.787v-2.3c0-.36-.3-.66-.66-.66z" fill="currentColor"/><circle cx="14.5" cy="14.5" r="14" stroke="currentColor"/></svg><svg fill="none" viewBox="0 0 21 27" id="play" xmlns="http://www.w3.org/2000/svg"><path d="M0 0l21 13.55L0 27V0z" fill="#fff"/></svg><svg fill="none" viewBox="0 0 16 10" id="v" xmlns="http://www.w3.org/2000/svg"><path d="M14.5.659L8 8.124 1 1.157" stroke="#fff" stroke-width="2"/></svg><svg fill="none" viewBox="0 0 22 13" id="v-black" xmlns="http://www.w3.org/2000/svg"><path fill-rule="evenodd" clip-rule="evenodd" d="M21.695 1.72L10.604 12.434.762 1.675 2.238.325l8.454 9.242L20.305.281l1.39 1.439z" fill="#000"/></svg><svg aria-hidden="true" data-prefix="fab" data-icon="vk" class="nsvg-inline--fa nfa-vk nfa-w-18" viewBox="0 0 576 512" id="vk" xmlns="http://www.w3.org/2000/svg"><path fill="currentColor" d="M545 117.7c3.7-12.5 0-21.7-17.8-21.7h-58.9c-15 0-21.9 7.9-25.6 16.7 0 0-30 73.1-72.4 120.5-13.7 13.7-20 18.1-27.5 18.1-3.7 0-9.4-4.4-9.4-16.9V117.7c0-15-4.2-21.7-16.6-21.7h-92.6c-9.4 0-15 7-15 13.5 0 14.2 21.2 17.5 23.4 57.5v86.8c0 19-3.4 22.5-10.9 22.5-20 0-68.6-73.4-97.4-157.4-5.8-16.3-11.5-22.9-26.6-22.9H38.8c-16.8 0-20.2 7.9-20.2 16.7 0 15.6 20 93.1 93.1 195.5C160.4 378.1 229 416 291.4 416c37.5 0 42.1-8.4 42.1-22.9 0-66.8-3.4-73.1 15.4-73.1 8.7 0 23.7 4.4 58.7 38.1 40 40 46.6 57.9 69 57.9h58.9c16.8 0 25.3-8.4 20.4-25-11.2-34.9-86.9-106.7-90.3-111.5-8.7-11.2-6.2-16.2 0-26.2.1-.1 72-101.3 79.4-135.6z"/></svg><svg aria-hidden="true" data-prefix="fab" data-icon="whatsapp" class="osvg-inline--fa ofa-whatsapp ofa-w-14" viewBox="0 0 448 512" id="whatsapp" xmlns="http://www.w3.org/2000/svg"><path fill="currentColor" d="M380.9 97.1C339 55.1 283.2 32 223.9 32c-122.4 0-222 99.6-222 222 0 39.1 10.2 77.3 29.6 111L0 480l117.7-30.9c32.4 17.7 68.9 27 106.1 27h.1c122.3 0 224.1-99.6 224.1-222 0-59.3-25.2-115-67.1-157zm-157 341.6c-33.2 0-65.7-8.9-94-25.7l-6.7-4-69.8 18.3L72 359.2l-4.4-7c-18.5-29.4-28.2-63.3-28.2-98.2 0-101.7 82.8-184.5 184.6-184.5 49.3 0 95.6 19.2 130.4 54.1 34.8 34.9 56.2 81.2 56.1 130.5 0 101.8-84.9 184.6-186.6 184.6zm101.2-138.2c-5.5-2.8-32.8-16.2-37.9-18-5.1-1.9-8.8-2.8-12.5 2.8-3.7 5.6-14.3 18-17.6 21.8-3.2 3.7-6.5 4.2-12 1.4-32.6-16.3-54-29.1-75.5-66-5.7-9.8 5.7-9.1 16.3-30.3 1.8-3.7.9-6.9-.5-9.7-1.4-2.8-12.5-30.1-17.1-41.2-4.5-10.8-9.1-9.3-12.5-9.5-3.2-.2-6.9-.2-10.6-.2-3.7 0-9.7 1.4-14.8 6.9-5.1 5.6-19.4 19-19.4 46.3 0 27.3 19.9 53.7 22.6 57.4 2.8 3.7 39.1 59.7 94.8 83.8 35.2 15.2 49 16.5 66.6 13.9 10.7-1.6 32.8-13.4 37.4-26.4 4.6-13 4.6-24.1 3.2-26.4-1.3-2.5-5-3.9-10.5-6.6z"/></svg></svg>